# xmcd CD database file
# Copyright (C) 1996 Ti Kan
#
# Track frame offsets:
# 	225
# 	9248
# 	24313
# 	41415
# 	56273
# 	73380
# 	84498
# 	96765
# 	108083
# 	119785
#
# Disc length: 1767 seconds
#
# Revision: 1
# Processed by: cddbd v1.4b41PL1 Copyright (c) Steve Scherf et al.
# Submitted via: DiscPlay 3.4.1
#
DISCID=7806e40a
DTITLE=B. B. King - The Best of B.B. King Vol 1
DYEAR=1900
DGENRE=
TTITLE0=Beautician Blues
TTITLE1=Dust My Broom
TTITLE2=Three O'clock Blues
TTITLE3=Ain't that Just Like a Woman
TTITLE4=Sweet Sixteen (part 1)
TTITLE5=Sweet Sixteen (part 2)
TTITLE6=Whole Lot of Lovin'
TTITLE7=Mean Ole Frisco
TTITLE8=Please Accept My Love
TTITLE9=Going Down Slow
EXTD=
EXTT0=
EXTT1=
EXTT2=
EXTT3=
EXTT4=
EXTT5=
EXTT6=
EXTT7=
EXTT8=
EXTT9=
PLAYORDER=
